{"title":"Le Samourai-720p MP4 AAC x264 BRRip 1967-CC","uid":8216432,"size":2903056195,"categoryP":"video","categoryS":"hd___movies","magnet":"?xt=urn:btih:b55a84f7bd00f5079035d0ed200364820ad741a1&amp;dn=Le+Samourai-720p+MP4+AAC+x264+BRRip+1967-CC&amp;tr=udp%3A%2F%2Ftracker.openbittorrent.com%3A80&amp;tr=udp%3A%2F%2Fopen.demonii.com%3A1337&amp;tr=udp%3A%2F%2Ftracker.coppersurfer.tk%3A6969&amp;tr=udp%3A%2F%2Fexodus.desync.com%3A6969","seeders":3,"leechers":2,"uploader":"Caveman44","files":-1,"time":1362349176,"description":" &lt;a href=&quot;http://www.imdb.com/title/tt0062229/&quot; rel=&quot;nofollow&quot; target=&quot;_NEW&quot;&gt;http://www.imdb.com/title/tt0062229/&lt;/a&gt;\n\nSource: Le.Samourai.1967.BluRay.720p.DTS-HD.MA.x264-cGz Thanks!\n\nSubs: Brazilian, Dutch, English, Farsi-Persian, French, Portuguese, Turkish and Vietnamese.\n\nSample and Screens included.\n\nGeneral\nComplete name                            : Le Samourai-720p MP4 AAC x264 BRRip 1967-CC.mp4\nFormat                                   : MPEG-4\nFormat profile                           : Base Media\nCodec ID                                 : isom\nFile size                                : 2.67 GiB\nDuration                                 : 1h 45mn\nOverall bit rate mode                    : Variable\nOverall bit rate                         : 3 636 Kbps\nEncoded date                             : UTC 2013-02-24 14:39:53\n\nVideo\nID                                       : 1\nFormat                                   : AVC\nFormat/Info                              : Advanced Video Codec\nFormat profile                           : &lt;a class=&quot;__cf_email__&quot; href=&quot;/cdn-cgi/l/email-protection&quot; data-cfemail=&quot;d49cbdb3bc9498e0fae5&quot;&gt;[email&amp;#160;protected]&lt;/a&gt;&lt;script cf-hash='f9e31' type=&quot;text/javascript&quot;&gt;\n/* &lt;![CDATA[ */!function(){try{var t=&quot;currentScript&quot;in document?document.currentScript:function(){for(var t=document.getElementsByTagName(&quot;script&quot;),e=t.length;e--;)if(t[e].getAttribute(&quot;cf-hash&quot;))return t[e]}();if(t&amp;&amp;t.previousSibling){var e,r,n,i,c=t.previousSibling,a=c.getAttribute(&quot;data-cfemail&quot;);if(a){for(e=&quot;&quot;,r=parseInt(a.substr(0,2),16),n=2;a.length-n;n+=2)i=parseInt(a.substr(n,2),16)^r,e+=String.fromCharCode(i);e=document.createTextNode(e),c.parentNode.replaceChild(e,c)}}}catch(u){}}();/* ]]&gt; */&lt;/script&gt;\nFormat settings, CABAC                   : Yes\nFormat settings, ReFrames                : 5 frames\nCodec ID                                 : avc1\nCodec ID/Info                            : Advanced Video Coding\nDuration                                 : 1h 45mn\nBit rate                                 : 3 435 Kbps\nMaximum bit rate                         : 14.2 Mbps\nWidth                                    : 1 280 pixels\nHeight                                   : 694 pixels\nDisplay aspect ratio                     : 1.85:1\nFrame rate mode                          : Variable\nFrame rate                               : 23.976 fps\nMinimum frame rate                       : 19.048 fps\nMaximum frame rate                       : 24.390 fps\nColor space                              : YUV\nChroma subsampling                       : 4:2:0\nBit depth                                : 8 bits\nScan type                                : Progressive\nBits/(Pixel*Frame)                       : 0.162\nStream size                              : 2.54 GiB (95%)\nWriting library                          : x264 core 112\n\nAudio\nID                                       : 2\nFormat                                   : AAC\nFormat/Info                              : Advanced Audio Codec\nFormat profile                           : LC\nCodec ID                                 : 40\nDuration                                 : 1h 45mn\nBit rate mode                            : Variable\nBit rate                                 : 181 Kbps\nMaximum bit rate                         : 352 Kbps\nChannel(s)                               : 2 channels\nChannel positions                        : Front: L R\nSampling rate                            : 48.0 KHz\nCompression mode                         : Lossy\nDelay relative to video                  : 83ms\nStream size                              : 136 MiB (5%)\nLanguage                                 : French\n\nEnjoy...\n\nRequested by DreamExtractor \n\nComing up: Mortal Kombat, Tropa de Elite, Vertigo and more...","torrent":{"xt":"urn:btih:b55a84f7bd00f5079035d0ed200364820ad741a1","amp;dn":"Le+Samourai-720p+MP4+AAC+x264+BRRip+1967-CC","amp;tr":["udp%3A%2F%2Ftracker.openbittorrent.com%3A80","udp%3A%2F%2Fopen.demonii.com%3A1337","udp%3A%2F%2Ftracker.coppersurfer.tk%3A6969","udp%3A%2F%2Fexodus.desync.com%3A6969"],"infoHash":"b55a84f7bd00f5079035d0ed200364820ad741a1","infoHashBuffer":{"type":"Buffer","data":[181,90,132,247,189,0,245,7,144,53,208,237,32,3,100,130,10,215,65,161]},"announce":[],"urlList":[]}}